<svg width="70" height="70" viewBox="0 0 70 70" fill="none" xmlns="http://www.w3.org/2000/svg">
<rect width="70" height="70" rx="35" fill="#333333"/>
<path d="M35 17.5C35.5802 17.5 36.1366 17.7305 36.5468 18.1407C36.957 18.5509 37.1875 19.1073 37.1875 19.6875V32.8125H50.3125C50.8927 32.8125 51.4491 33.043 51.8593 33.4532C52.2695 33.8634 52.5 34.4198 52.5 35C52.5 35.5802 52.2695 36.1366 51.8593 36.5468C51.4491 36.957 50.8927 37.1875 50.3125 37.1875H37.1875V50.3125C37.1875 50.8927 36.957 51.4491 36.5468 51.8593C36.1366 52.2695 35.5802 52.5 35 52.5C34.4198 52.5 33.8634 52.2695 33.4532 51.8593C33.043 51.4491 32.8125 50.8927 32.8125 50.3125V37.1875H19.6875C19.1073 37.1875 18.5509 36.957 18.1407 36.5468C17.7305 36.1366 17.5 35.5802 17.5 35C17.5 34.4198 17.7305 33.8634 18.1407 33.4532C18.5509 33.043 19.1073 32.8125 19.6875 32.8125H32.8125V19.6875C32.8125 19.1073 33.043 18.5509 33.4532 18.1407C33.8634 17.7305 34.4198 17.5 35 17.5Z" fill="#FBFBFB"/>
</svg>
