<svg width="18" height="5" viewBox="0 0 18 5" fill="none" xmlns="http://www.w3.org/2000/svg">
<path d="M15.25 0.625004C15.7473 0.625004 16.2242 0.822548 16.5758 1.17418C16.9275 1.52581 17.125 2.00272 17.125 2.5C17.125 2.99728 16.9275 3.4742 16.5758 3.82583C16.2242 4.17746 15.7473 4.375 15.25 4.375C14.7527 4.375 14.2758 4.17746 13.9242 3.82583C13.5725 3.4742 13.375 2.99728 13.375 2.5C13.375 2.00272 13.5725 1.52581 13.9242 1.17418C14.2758 0.822548 14.7527 0.625004 15.25 0.625004ZM9 0.625004C9.49728 0.625004 9.97419 0.822547 10.3258 1.17418C10.6775 1.52581 10.875 2.00272 10.875 2.5C10.875 2.99728 10.6775 3.4742 10.3258 3.82583C9.97419 4.17746 9.49728 4.375 9 4.375C8.50272 4.375 8.0258 4.17746 7.67417 3.82583C7.32254 3.47419 7.125 2.99728 7.125 2.5C7.125 2.00272 7.32254 1.52581 7.67417 1.17418C8.0258 0.822547 8.50272 0.625004 9 0.625004ZM2.75 0.625003C3.24728 0.625003 3.72419 0.822547 4.07582 1.17418C4.42746 1.52581 4.625 2.00272 4.625 2.5C4.625 2.99728 4.42746 3.47419 4.07582 3.82582C3.72419 4.17746 3.24728 4.375 2.75 4.375C2.25272 4.375 1.7758 4.17746 1.42417 3.82582C1.07254 3.47419 0.874998 2.99728 0.874998 2.5C0.874998 2.00272 1.07254 1.52581 1.42417 1.17418C1.7758 0.822547 2.25272 0.625003 2.75 0.625003Z" fill="black"/>
</svg>
